<svg xmlns="http://www.w3.org/2000/svg" viewBox="0 0 256 256" role="img" aria-label="VnSnap Studio">
  <defs>
    <linearGradient id="bg" x1="32" y1="26" x2="218" y2="232" gradientUnits="userSpaceOnUse">
      <stop offset="0" stop-color="#151b2a"/>
      <stop offset="0.52" stop-color="#0a1220"/>
      <stop offset="1" stop-color="#061018"/>
    </linearGradient>
    <linearGradient id="mark" x1="50" y1="52" x2="198" y2="218" gradientUnits="userSpaceOnUse">
      <stop offset="0" stop-color="#64e8ff"/>
      <stop offset="0.46" stop-color="#2f8cff"/>
      <stop offset="1" stop-color="#f2b35a"/>
    </linearGradient>
    <filter id="glow" x="-40%" y="-40%" width="180%" height="180%">
      <feGaussianBlur stdDeviation="5" result="blur"/>
      <feColorMatrix in="blur" type="matrix" values="0 0 0 0 0.15  0 0 0 0 0.75  0 0 0 0 1  0 0 0 .65 0"/>
      <feMerge>
        <feMergeNode/>
        <feMergeNode in="SourceGraphic"/>
      </feMerge>
    </filter>
  </defs>
  <rect x="18" y="18" width="220" height="220" rx="54" fill="url(#bg)"/>
  <rect x="20" y="20" width="216" height="216" rx="52" fill="none" stroke="rgba(255,255,255,.18)" stroke-width="3"/>
  <path d="M61 65c18 6 34 20 47 42l22 39 55-85c9-14 27-9 29 7 .7 5-.6 10-3.6 14.5l-71 109c-7.8 12-25.6 11.7-33-.7L45 89.5C38 77.8 48 60.7 61 65Z" fill="url(#mark)" filter="url(#glow)"/>
  <path d="M151 91c17-13 39-18 61-13-19 8-35 21-47 39l-20 31-14-25 20-32Z" fill="#ffffff" opacity=".18"/>
  <circle cx="190" cy="66" r="7" fill="#f2b35a"/>
</svg>
